<svg xmlns="http://www.w3.org/2000/svg" viewBox="0 0 144 144"><defs><style>.cls-1{fill:none;}.cls-2{fill:#00a7fe;}</style></defs><title>资源 2</title><g id="图层_2" data-name="图层 2"><g id="图层_1-2" data-name="图层 1"><rect class="cls-1" width="144" height="144" rx="8"/><path class="cls-2" d="M104.94,47.31h13.25V34h9V47.31h13.33v9H127.2V69.57h-9V56.35H104.94Z"/><path class="cls-2" d="M2.22,55.13,8,47q4.81-6.83,9.62-13.67a1.08,1.08,0,0,1,1-.55c13.27,0,26.53-.1,39.79.06,9.86.11,19.24,2.43,27.58,7.84a39.37,39.37,0,0,1,16,18.68,41,41,0,0,1,2.75,11.74,45.86,45.86,0,0,1-2,18.58,41.39,41.39,0,0,1-12.88,18.6A47.25,47.25,0,0,1,66.93,118.9a58.89,58.89,0,0,1-10.35.89H2.22V65.5a1.55,1.55,0,0,1,1.11-.22H26.14c1.26,0,1.37.1,1.37,1.37v29c0,1.39,0,1.39,1.4,1.39,9.67,0,19.34.1,29,0a22.94,22.94,0,0,0,16.91-7.22,17.9,17.9,0,0,0,4.81-10.69,21.33,21.33,0,0,0-1.57-11,19.21,19.21,0,0,0-5.19-6.85,24,24,0,0,0-14.09-5.62c-1.51-.13-3-.12-4.52-.12H3.55a1.92,1.92,0,0,1-1.33-.22Z"/></g></g></svg>